<svg width="16" height="23" viewBox="0 0 16 23" fill="none" xmlns="http://www.w3.org/2000/svg">
<path d="M8 0.0683594C6.67441 0.0699472 5.40356 0.597241 4.46622 1.53458C3.52888 2.47192 3.00159 3.74276 3 5.06836V7.83336C1.70615 8.86927 0.765992 10.2815 0.309459 11.8748C-0.147074 13.4682 -0.0974441 15.164 0.451491 16.7279C1.00043 18.2918 2.02156 19.6466 3.37378 20.6051C4.726 21.5636 6.34254 22.0784 8 22.0784C9.65746 22.0784 11.274 21.5636 12.6262 20.6051C13.9784 19.6466 14.9996 18.2918 15.5485 16.7279C16.0974 15.164 16.1471 13.4682 15.6905 11.8748C15.234 10.2815 14.2939 8.86927 13 7.83336V5.06836C12.9984 3.74276 12.4711 2.47192 11.5338 1.53458C10.5964 0.597241 9.32559 0.0699472 8 0.0683594ZM5 5.06836C5 4.27271 5.31607 3.50965 5.87868 2.94704C6.44129 2.38443 7.20435 2.06836 8 2.06836C8.79565 2.06836 9.55871 2.38443 10.1213 2.94704C10.6839 3.50965 11 4.27271 11 5.06836V6.65736C9.07708 5.87207 6.92292 5.87207 5 6.65736V5.06836ZM14 14.0684C14 15.255 13.6481 16.4151 12.9888 17.4018C12.3295 18.3885 11.3925 19.1575 10.2961 19.6116C9.19974 20.0658 7.99334 20.1846 6.82946 19.9531C5.66557 19.7216 4.59647 19.1501 3.75736 18.311C2.91824 17.4719 2.3468 16.4028 2.11529 15.2389C1.88378 14.075 2.0026 12.8686 2.45672 11.7723C2.91085 10.6759 3.67988 9.73883 4.66658 9.07954C5.65327 8.42025 6.81331 8.06836 8 8.06836C9.59081 8.06995 11.116 8.7026 12.2409 9.82747C13.3658 10.9523 13.9984 12.4775 14 14.0684ZM10 13.0684C9.99902 13.418 9.90611 13.7613 9.73059 14.0637C9.55508 14.3661 9.30312 14.6171 9 14.7914V17.0684C9 17.3336 8.89464 17.5879 8.70711 17.7755C8.51957 17.963 8.26522 18.0684 8 18.0684C7.73478 18.0684 7.48043 17.963 7.29289 17.7755C7.10536 17.5879 7 17.3336 7 17.0684V14.7914C6.69563 14.6156 6.44295 14.3628 6.2674 14.0583C6.09184 13.7539 5.99962 13.4085 6.00002 13.057C6.00042 12.7056 6.09343 12.3604 6.26967 12.0564C6.44592 11.7523 6.69918 11.5 7.00395 11.325C7.30871 11.15 7.65422 11.0583 8.00568 11.0593C8.35713 11.0603 8.70212 11.1539 9.00589 11.3307C9.30966 11.5074 9.56149 11.7611 9.73601 12.0662C9.91054 12.3712 10.0016 12.7169 10 13.0684Z" fill="white"/>
</svg>