<svg width="116" height="29" viewBox="0 0 116 29" fill="none" xmlns="http://www.w3.org/2000/svg">
<g clip-path="url(#clip0_1487_70579)">
<mask id="mask0_1487_70579" style="mask-type:luminance" maskUnits="userSpaceOnUse" x="0" y="6" width="116" height="17">
<path d="M105.11 21.0171V6.45696H109.144V18.7279H114.581C115.089 18.7279 115.5 19.1412 115.5 19.6508V22.019H106.107C105.557 22.019 105.11 21.5704 105.11 21.0171ZM93.8209 21.0171V6.45696H97.8551V18.7279H103.32C103.812 18.7279 104.21 19.1285 104.21 19.6224V22.019H94.8179C94.2671 22.019 93.8209 21.5704 93.8209 21.0171ZM79.9081 16.2214V6.45696H83.9641V16.4175C83.9641 17.4421 84.2895 18.8587 86.285 18.8587C88.3021 18.8587 88.6491 17.4421 88.6491 16.4175V6.45696H92.6835V16.2214C92.6835 19.9265 90.2543 22.2588 86.285 22.2588C82.3375 22.2588 79.9081 19.9265 79.9081 16.2214ZM72.5464 9.79188V12.4943H78.1423V15.8509H72.5464V22.019H68.4903V8.0046C68.4903 7.11096 69.1627 6.45696 70.0737 6.45696H78.9666V9.79188H72.5464ZM60.4214 9.81356V12.4943H66.4946V15.8509H60.4214V18.6625H66.1383C66.6344 18.6625 67.0367 19.0668 67.0367 19.5655V22.019H56.3653V8.0046C56.3653 7.11096 57.0377 6.45696 57.9487 6.45696H67.232V9.81356H60.4214ZM47.5882 18.7279H45.5276V9.74819H47.7616C50.5596 9.74819 51.5575 12.1457 51.5575 14.1727C51.5575 16.5049 50.256 18.7279 47.5882 18.7279ZM47.9569 6.45696H43.0983C42.1655 6.45696 41.4715 7.11096 41.4715 8.0046V22.019H47.8484C53.1624 22.019 55.5484 18.0522 55.5484 14.1727C55.5484 10.1841 53.0323 6.45696 47.9569 6.45696ZM31.8482 15.742L33.3449 11.0777L34.8198 15.742H31.8482ZM35.7525 7.5687C35.4272 6.69691 34.4728 6.34806 33.3449 6.34806C32.1952 6.34806 31.2627 6.69691 30.9589 7.5687L25.7534 22.019H29.8529L30.7855 19.0985H35.9043L36.8369 22.019H40.9364L35.7525 7.5687ZM19.654 13.4534H17.3766V9.74819H19.6758C20.9338 9.74819 21.476 10.5328 21.476 11.5571C21.476 12.8868 20.8688 13.4534 19.654 13.4534ZM22.8488 16.1778C24.9309 15.4586 25.9288 13.8676 25.9288 11.5355C25.9288 8.50587 23.9985 6.45696 20.4847 6.45696H14.888C14.3493 6.45696 13.9125 6.89591 13.9125 7.43716V22.019H17.795V16.6138H18.9447L21.9595 22.019H26.3627L22.8488 16.1778ZM12.8177 9.95843H8.67485V22.019H4.61882V9.95843H1.22473C0.787308 9.95843 0.432739 9.60219 0.432739 9.1626V6.45696H11.9922C12.4481 6.45696 12.8177 6.82845 12.8177 7.28651V9.95843Z" fill="white"/>
</mask>
<g mask="url(#mask0_1487_70579)">
<path d="M105.11 21.0171V6.45696H109.144V18.7279H114.581C115.089 18.7279 115.5 19.1412 115.5 19.6508V22.019H106.107C105.557 22.019 105.11 21.5704 105.11 21.0171ZM93.8209 21.0171V6.45696H97.8551V18.7279H103.32C103.812 18.7279 104.21 19.1285 104.21 19.6224V22.019H94.8179C94.2671 22.019 93.8209 21.5704 93.8209 21.0171ZM79.9081 16.2214V6.45696H83.9641V16.4175C83.9641 17.4421 84.2895 18.8587 86.285 18.8587C88.3021 18.8587 88.6491 17.4421 88.6491 16.4175V6.45696H92.6835V16.2214C92.6835 19.9265 90.2543 22.2588 86.285 22.2588C82.3375 22.2588 79.9081 19.9265 79.9081 16.2214ZM72.5464 9.79188V12.4943H78.1423V15.8509H72.5464V22.019H68.4903V8.0046C68.4903 7.11096 69.1627 6.45696 70.0737 6.45696H78.9666V9.79188H72.5464ZM60.4214 9.81356V12.4943H66.4946V15.8509H60.4214V18.6625H66.1383C66.6344 18.6625 67.0367 19.0668 67.0367 19.5655V22.019H56.3653V8.0046C56.3653 7.11096 57.0377 6.45696 57.9487 6.45696H67.232V9.81356H60.4214ZM47.5882 18.7279H45.5276V9.74819H47.7616C50.5596 9.74819 51.5575 12.1457 51.5575 14.1727C51.5575 16.5049 50.256 18.7279 47.5882 18.7279ZM47.9569 6.45696H43.0983C42.1655 6.45696 41.4715 7.11096 41.4715 8.0046V22.019H47.8484C53.1624 22.019 55.5484 18.0522 55.5484 14.1727C55.5484 10.1841 53.0323 6.45696 47.9569 6.45696ZM31.8482 15.742L33.3449 11.0777L34.8198 15.742H31.8482ZM35.7525 7.5687C35.4272 6.69691 34.4728 6.34806 33.3449 6.34806C32.1952 6.34806 31.2627 6.69691 30.9589 7.5687L25.7534 22.019H29.8529L30.7855 19.0985H35.9043L36.8369 22.019H40.9364L35.7525 7.5687ZM19.654 13.4534H17.3766V9.74819H19.6758C20.9338 9.74819 21.476 10.5328 21.476 11.5571C21.476 12.8868 20.8688 13.4534 19.654 13.4534ZM22.8488 16.1778C24.9309 15.4586 25.9288 13.8676 25.9288 11.5355C25.9288 8.50587 23.9985 6.45696 20.4847 6.45696H14.888C14.3493 6.45696 13.9125 6.89591 13.9125 7.43716V22.019H17.795V16.6138H18.9447L21.9595 22.019H26.3627L22.8488 16.1778ZM12.8177 9.95843H8.67485V22.019H4.61882V9.95843H1.22473C0.787308 9.95843 0.432739 9.60219 0.432739 9.1626V6.45696H11.9922C12.4481 6.45696 12.8177 6.82845 12.8177 7.28651V9.95843Z" fill="url(#paint0_linear_1487_70579)"/>
</g>
<path d="M114.12 4.48721C113.776 4.48721 113.497 4.7678 113.497 5.11391V5.21156C113.497 5.54194 113.23 5.80968 112.901 5.80968H110.838C110.698 5.80968 110.585 5.92355 110.585 6.06424V8.59964C110.585 8.88665 110.93 9.03024 111.132 8.82739L112.812 7.13969C113.046 6.90424 113.426 6.90424 113.66 7.13969L114.196 7.67854C114.398 7.88155 114.744 7.73781 114.744 7.4508V5.11391C114.744 4.7678 114.464 4.48721 114.12 4.48721ZM114.125 4.24115C114.467 4.24115 114.744 3.96266 114.744 3.61927V2.08672V1.1555C114.744 0.977547 114.6 0.83332 114.423 0.83332H113.497H111.971C111.63 0.83332 111.353 1.11166 111.353 1.45504C111.353 1.79843 111.63 2.07677 111.971 2.07677H112.911C113.24 2.07693 113.506 2.34466 113.506 2.67488V3.61927C113.506 3.96266 113.783 4.24115 114.125 4.24115ZM113.001 4.88874C113.001 5.12002 112.815 5.30761 112.585 5.30761H110.291V3.00301C110.291 2.77173 110.478 2.58414 110.708 2.58414H110.87H113.001V4.72588V4.88874ZM111.107 1.46002C111.107 1.11391 110.828 0.83332 110.484 0.83332H108.158C107.873 0.83332 107.73 1.18024 107.932 1.38325L108.468 1.9221C108.702 2.15755 108.702 2.53933 108.468 2.77478L106.788 4.46248C106.586 4.66533 106.729 5.01241 107.015 5.01241H109.538C109.678 5.01241 109.791 4.89837 109.791 4.75768V2.68468C109.791 2.35446 110.058 2.08672 110.387 2.08672H110.484C110.828 2.08672 111.107 1.80614 111.107 1.46002Z" fill="white"/>
</g>
<defs>
<linearGradient id="paint0_linear_1487_70579" x1="0.432739" y1="14.3034" x2="115.5" y2="14.3034" gradientUnits="userSpaceOnUse">
<stop stop-color="white"/>
</linearGradient>
<clipPath id="clip0_1487_70579">
<rect width="115.079" height="27.3391" fill="white" transform="translate(0.432739 0.833984)"/>
</clipPath>
</defs>
</svg>
